<?xml version="1.0" encoding="UTF-8"?><svg id="Warstwa_2" xmlns="http://www.w3.org/2000/svg" viewBox="0 0 247 247"><defs><style>.cls-1{fill:#10233b;}.cls-2{fill:#a1bac7;}</style></defs><g id="Warstwa_1-2"><rect class="cls-2" width="247" height="247" rx="48.66" ry="48.66"/><path class="cls-1" d="m194.43,107.72c-1.19-7.89-3.91-15.23-8.1-22.03-5.47-8.88-12.76-15.93-21.55-21.48-5.97-3.77-12.38-6.51-19.14-8.54-6.94-2.08-13.99-3.42-21.25-3.56-6.92-.14-13.73.66-20.4,2.53-15.36,4.3-28.03,12.69-37.8,25.3-8.68,11.21-13.42,23.95-14.33,38.12-.46,7.13.18,14.17,1.78,21.12,2.72,11.82,8.26,22.2,16.47,31.07,13.26,14.33,29.6,22.6,49.12,24.4,5.09.47,10.19.36,15.27-.26,6.67-.81,13.07-2.59,19.18-5.38,11.55-5.26,20.82-13.25,27.98-23.67,9.27-13.49,13.62-28.53,13.77-44.84,0-4.29-.36-8.55-1-12.79Zm-27.25-5.27c-.27,4.19-.88,8.33-2.31,12.3-2.28,6.34-6.33,11.33-11.8,15.21-5.17,3.67-10.94,5.92-17.1,7.22-2.48.52-4.98,1.02-7.48,1.45-2.76.48-5.55.71-8.35.74-7.1.07-13.87-1.27-20.17-4.7-6.92-3.77-12.51-8.93-16.47-15.78-2.69-4.65-4.4-9.65-5.06-14.98-1.49-12.09,1.49-23,8.89-32.65,5.22-6.81,12.03-11.52,20.04-14.52,6.08-2.28,12.35-3.44,18.85-3.13,8.72.4,16.59,3.22,23.52,8.53,7.51,5.76,12.53,13.26,15.35,22.27,1.84,5.88,2.46,11.9,2.07,18.03Z"/></g></svg>